# xmcd
#
# Track frame offsets:
#	150
#	12209
#	23398
#	33720
#	45596
#	57121
#	66555
#	80486
#	93298
#	105532
#	117857
#	127547
#
# Disc length: 1848 seconds
#
# Revision: 1
# Processed by: cddbd v1.5.2PL0 Copyright (c) Steve Scherf et al.
# Submitted via: audiograbber 1.82.02
#
DISCID=8a07360c
DTITLE=Reg Lindsay - Encores
DYEAR=1992
DGENRE=Country
TTITLE0=Oklohoma Hills
TTITLE1=Nobody Knows But Me
TTITLE2=South Pacific Shore
TTITLE3=Kissing My Pillow
TTITLE4=Take These Chains From My Heart
TTITLE5=Lonley Road
TTITLE6=We're Proud To Call Him Son 
TTITLE7=I'm Happy Every Day I Live
TTITLE8=Trouble In My Arms
TTITLE9=Teardrops On A Rose
TTITLE10=Scared Of Losing You
TTITLE11=My Traveling Night
EXTD=
EXTT0=
EXTT1=
EXTT2=
EXTT3=
EXTT4=
EXTT5=
EXTT6=
EXTT7=
EXTT8=
EXTT9=
EXTT10=
EXTT11=
PLAYORDER=
